<svg viewBox="0 0 440 320" fill="none" xmlns="http://www.w3.org/2000/svg" role="img" aria-hidden="true">
  <circle cx="382" cy="46" r="15" stroke="rgba(246,241,228,0.35)" stroke-width="1.5"/>
  <g stroke="rgba(246,241,228,0.28)" stroke-width="1.4">
    <rect x="16" y="158" width="24" height="84"/>
    <rect x="46" y="130" width="20" height="112"/>
    <rect x="72" y="172" width="28" height="70"/>
    <rect x="106" y="146" width="18" height="96"/>
    <rect x="330" y="150" width="20" height="92"/>
    <rect x="356" y="118" width="22" height="124"/>
    <rect x="384" y="164" width="26" height="78"/>
  </g>
  <path d="M18 246 C 110 190, 200 214, 268 158 S 356 96, 402 66" stroke="#E8B800" stroke-width="2.5" stroke-dasharray="2 11" stroke-linecap="round"/>
  <circle cx="18" cy="246" r="6" fill="#E8B800"/>
  <circle cx="402" cy="66" r="9" fill="#E8B800"/>
  <circle cx="402" cy="66" r="3.5" fill="#111111"/>
  <g transform="translate(78,182)">
    <path d="M-4 62H208" stroke="rgba(246,241,228,0.3)" stroke-width="1.4"/>
    <path d="M0 34a10 10 0 0 1 10-10h164a10 10 0 0 1 10 10v24H0z" fill="#111111" stroke="#F6F1E4" stroke-width="2"/>
    <path d="M38 24 L58 -2h68l20 26" fill="#111111" stroke="#F6F1E4" stroke-width="2"/>
    <rect x="62" y="4" width="26" height="18" fill="#111111" stroke="#F6F1E4" stroke-width="1.4"/>
    <rect x="94" y="4" width="26" height="18" fill="#111111" stroke="#F6F1E4" stroke-width="1.4"/>
    <g transform="translate(16,38)">
      <rect width="7" height="7" fill="#E8B800"/>
      <rect x="7" width="7" height="7" fill="#111111" stroke="#F6F1E4" stroke-width="0.6"/>
      <rect x="14" width="7" height="7" fill="#E8B800"/>
      <rect y="7" width="7" height="7" fill="#111111" stroke="#F6F1E4" stroke-width="0.6"/>
      <rect x="7" y="7" width="7" height="7" fill="#E8B800"/>
      <rect x="14" y="7" width="7" height="7" fill="#111111" stroke="#F6F1E4" stroke-width="0.6"/>
    </g>
    <circle cx="38" cy="62" r="14" fill="#111111" stroke="#F6F1E4" stroke-width="2"/>
    <circle cx="162" cy="62" r="14" fill="#111111" stroke="#F6F1E4" stroke-width="2"/>
    <circle cx="38" cy="62" r="4.5" fill="#E8B800"/>
    <circle cx="162" cy="62" r="4.5" fill="#E8B800"/>
  </g>
</svg>
